<svg width="21" height="21" viewBox="0 0 21 21" fill="none" xmlns="http://www.w3.org/2000/svg">
	<path
		d="M3.5 19.25C3.5 17.3935 4.2375 15.613 5.55025 14.3003C6.86301 12.9875 8.64348 12.25 10.5 12.25C12.3565 12.25 14.137 12.9875 15.4497 14.3003C16.7625 15.613 17.5 17.3935 17.5 19.25H15.75C15.75 17.8576 15.1969 16.5223 14.2123 15.5377C13.2277 14.5531 11.8924 14 10.5 14C9.10761 14 7.77226 14.5531 6.78769 15.5377C5.80312 16.5223 5.25 17.8576 5.25 19.25H3.5ZM10.5 11.375C7.59937 11.375 5.25 9.02563 5.25 6.125C5.25 3.22438 7.59937 0.875 10.5 0.875C13.4006 0.875 15.75 3.22438 15.75 6.125C15.75 9.02563 13.4006 11.375 10.5 11.375ZM10.5 9.625C12.4338 9.625 14 8.05875 14 6.125C14 4.19125 12.4338 2.625 10.5 2.625C8.56625 2.625 7 4.19125 7 6.125C7 8.05875 8.56625 9.625 10.5 9.625Z"
		fill="#333333"/>
</svg>
