<svg xmlns="http://www.w3.org/2000/svg" width="49.427" height="17.542" viewBox="0 0 49.427 17.542">
  <g id="Group_16438" data-name="Group 16438" transform="translate(0.5 0.5)">
    <g id="Group_11809" data-name="Group 11809" transform="translate(0 0)">
      <path id="Path_1456" data-name="Path 1456" d="M156.467,484.592a3.839,3.839,0,1,1,3.839,3.839A3.838,3.838,0,0,1,156.467,484.592Z" transform="translate(-119.798 -471.889)" fill="none" stroke="#042759" stroke-width="1"/>
      <path id="Path_1457" data-name="Path 1457" d="M77.832,484.592a3.839,3.839,0,1,1,3.838,3.839A3.838,3.838,0,0,1,77.832,484.592Z" transform="translate(-71.196 -471.889)" fill="none" stroke="#042759" stroke-width="1"/>
      <path id="Path_1458" data-name="Path 1458" d="M104.7,471.129h3.585a.6.6,0,0,0,.6-.609l-.028-2.672a.951.951,0,0,0-.415-.842l-1.053-.692-.007-1.415a.852.852,0,0,0-.493-.869,25.8,25.8,0,0,0-8.972-1.774,13.637,13.637,0,0,1-5.32-1.4l-4.14-2.07a11.762,11.762,0,0,0-5.261-1.242H77.9a19.457,19.457,0,0,0-9.78,2.546,11.046,11.046,0,0,1-6.112,1.618.519.519,0,0,0-.547.524v1.862a5.527,5.527,0,0,0-1,3.135s.016,3.9,3.047,3.9H67.2" transform="translate(-60.457 -457.544)" fill="none" stroke="#042759" stroke-width="1"/>
      <line id="Line_62" data-name="Line 62" x2="21.962" transform="translate(14.481 13.585)" fill="none" stroke="#042759" stroke-width="1"/>
    </g>
    <path id="Path_1459" data-name="Path 1459" d="M113.571,457.544V463.4h8.244a6.643,6.643,0,0,0,4.7-1.946l.035-.035" transform="translate(-93.285 -457.544)" fill="none" stroke="#042759" stroke-width="1"/>
    <path id="Path_1460" data-name="Path 1460" d="M97.44,465.477h-2.9a7.754,7.754,0,0,1-7.072-4.575h0" transform="translate(-77.154 -459.619)" fill="none" stroke="#042759" stroke-width="1"/>
    <path id="Path_1461" data-name="Path 1461" d="M113.571,493.113" transform="translate(-93.285 -479.528)" fill="none" stroke="#042759" stroke-width="1"/>
    <line id="Line_63" data-name="Line 63" x2="3.765" transform="translate(1.005 6.549)" fill="none" stroke="#042759" stroke-linecap="round" stroke-width="1"/>
  </g>
</svg>
