<svg xmlns="http://www.w3.org/2000/svg" xmlns:xlink="http://www.w3.org/1999/xlink" width="30.76" height="45.526" viewBox="0 0 30.76 45.526">
  <defs>
    <clipPath id="clip-path">
      <rect id="Rectangle_1796" data-name="Rectangle 1796" width="21.43" height="21.43" fill="none" stroke="#042759" stroke-width="1"/>
    </clipPath>
  </defs>
  <g id="Group_17161" data-name="Group 17161" transform="translate(-448.76 -1188.082)">
    <path id="Path_26695" data-name="Path 26695" d="M-2748.8-2907.281c0,8.218-14.88,29.28-14.88,29.28s-14.88-21.062-14.88-29.28a14.88,14.88,0,0,1,14.88-14.88A14.88,14.88,0,0,1-2748.8-2907.281Z" transform="translate(3227.822 4110.742)" fill="#ffc600" stroke="#da9939" stroke-width="1"/>
    <g id="Group_17153" data-name="Group 17153" transform="translate(453.426 1194.12)">
      <line id="Line_175" data-name="Line 175" y2="3.75" transform="translate(8.036 12.858)" fill="none" stroke="#042759" stroke-linejoin="round" stroke-width="1"/>
      <g id="Group_17151" data-name="Group 17151">
        <g id="Group_17150" data-name="Group 17150" clip-path="url(#clip-path)">
          <path id="Path_26759" data-name="Path 26759" d="M7.061,30,5.8,31.262a.466.466,0,0,0-.137.33v1.356a.465.465,0,0,1-.293.433l-3.49,1.4A1.4,1.4,0,0,0,1,36.076V37.46" transform="translate(-0.534 -16.03)" fill="none" stroke="#042759" stroke-linejoin="round" stroke-width="1"/>
          <path id="Path_26760" data-name="Path 26760" d="M32,30l1.262,1.262a.466.466,0,0,1,.137.33v1.356a.465.465,0,0,0,.293.433l3.49,1.4a1.4,1.4,0,0,1,.879,1.3V37.46" transform="translate(-17.08 -16.03)" fill="none" stroke="#042759" stroke-linejoin="round" stroke-width="1"/>
          <path id="Path_26761" data-name="Path 26761" d="M14,34l2.981,1.278a.466.466,0,0,1,.283.428V38.2" transform="translate(-7.473 -18.165)" fill="none" stroke="#042759" stroke-linejoin="round" stroke-width="1"/>
          <path id="Path_26762" data-name="Path 26762" d="M18.2,21.994h-.379a2.757,2.757,0,0,1-1.894-.744,16.067,16.067,0,0,1-1.515-1.489,5.1,5.1,0,0,1-.408-2V15" transform="translate(-7.473 -8.024)" fill="none" stroke="#042759" stroke-linejoin="round" stroke-width="1"/>
          <line id="Line_176" data-name="Line 176" y2="3.75" transform="translate(13.929 12.858)" fill="none" stroke="#042759" stroke-linejoin="round" stroke-width="1"/>
          <path id="Path_26763" data-name="Path 26763" d="M28.264,34l-2.981,1.278a.466.466,0,0,0-.283.428V38.2" transform="translate(-13.344 -18.165)" fill="none" stroke="#042759" stroke-linejoin="round" stroke-width="1"/>
          <path id="Path_26764" data-name="Path 26764" d="M23,21.994h.379a2.756,2.756,0,0,0,1.894-.744,16.067,16.067,0,0,0,1.515-1.489,5.1,5.1,0,0,0,.408-2V15" transform="translate(-12.276 -8.024)" fill="none" stroke="#042759" stroke-linejoin="round" stroke-width="1"/>
          <path id="Path_26765" data-name="Path 26765" d="M21,4.264V1h1.865V4.264" transform="translate(-11.209 -0.551)" fill="none" stroke="#042759" stroke-linejoin="round" stroke-width="1"/>
          <line id="Line_177" data-name="Line 177" x1="11.786" transform="translate(4.822 6.965)" fill="none" stroke="#042759" stroke-linejoin="round" stroke-width="1"/>
          <path id="Path_26766" data-name="Path 26766" d="M14.264,3.865V2a4.014,4.014,0,0,0-2.8,3.73V6.2L11,6.662v.466" transform="translate(-5.871 -1.085)" fill="none" stroke="#042759" stroke-linejoin="round" stroke-width="1"/>
          <path id="Path_26767" data-name="Path 26767" d="M28,3.865V2a4.014,4.014,0,0,1,2.8,3.73V6.2l.466.466v.466" transform="translate(-14.945 -1.085)" fill="none" stroke="#042759" stroke-linejoin="round" stroke-width="1"/>
        </g>
      </g>
    </g>
  </g>
</svg>
