<svg xmlns="http://www.w3.org/2000/svg" width="150" height="150" viewBox="0 0 150 150">
  <g id="cyclon-icon" transform="translate(-262.999)">
    <path id="Path_3" data-name="Path 3" d="M52.717,42.866h150v-150h-150Z" transform="translate(210.282 107.134)" fill="#042759"/>
    <g id="Group_3" data-name="Group 3" transform="translate(264.532 37.487)">
      <path id="Path_4" data-name="Path 4" d="M60.514,0,19.869,7c-.029.005-.053.005-.082.011l-56.93,9.807c10.8,12.76,33.63,21.63,73.095,15.186L88.1,23.077Z" transform="translate(51.468 40.879)" fill="#ffdb44"/>
      <path id="Path_5" data-name="Path 5" d="M24.655,23.068c0-6.052,6.649-11.164,15.78-12.828L65.11,6.11l-24.3-20.269c-31.4,1.835-55.942,17.8-55.942,37.227a30.791,30.791,0,0,0,3.691,14.49l40.158-6.92a9.2,9.2,0,0,1-4.062-7.569" transform="translate(21.692 14.159)" fill="#ffdb44"/>
    </g>
  </g>
</svg>
