<svg id="Group_17152" data-name="Group 17152" xmlns="http://www.w3.org/2000/svg" xmlns:xlink="http://www.w3.org/1999/xlink" width="40" height="40" viewBox="0 0 40 40">
  <defs>
    <clipPath id="clip-path">
      <rect id="Rectangle_1796" data-name="Rectangle 1796" width="40" height="40" fill="none" stroke="#042759" stroke-width="1.5"/>
    </clipPath>
  </defs>
  <line id="Line_175" data-name="Line 175" y2="7" transform="translate(15 24)" fill="none" stroke="#042759" stroke-linejoin="round" stroke-width="1.5"/>
  <g id="Group_17151" data-name="Group 17151">
    <g id="Group_17150" data-name="Group 17150" clip-path="url(#clip-path)">
      <path id="Path_26759" data-name="Path 26759" d="M12.313,30,9.958,32.356a.869.869,0,0,0-.255.615V35.5a.869.869,0,0,1-.547.808L2.641,38.917A2.61,2.61,0,0,0,1,41.34v2.584" transform="translate(-0.13 -3.924)" fill="none" stroke="#042759" stroke-linejoin="round" stroke-width="1.5"/>
      <path id="Path_26760" data-name="Path 26760" d="M32,30l2.356,2.356a.869.869,0,0,1,.255.615V35.5a.869.869,0,0,0,.547.808l6.514,2.606a2.61,2.61,0,0,1,1.641,2.424v2.584" transform="translate(-4.152 -3.924)" fill="none" stroke="#042759" stroke-linejoin="round" stroke-width="1.5"/>
      <path id="Path_26761" data-name="Path 26761" d="M14,34l5.564,2.385a.87.87,0,0,1,.527.8v4.648" transform="translate(-1.816 -4.443)" fill="none" stroke="#042759" stroke-linejoin="round" stroke-width="1.5"/>
      <path id="Path_26762" data-name="Path 26762" d="M21.832,28.054h-.707a5.146,5.146,0,0,1-3.536-1.389,29.991,29.991,0,0,1-2.828-2.78A9.523,9.523,0,0,1,14,20.145V15" transform="translate(-1.816 -1.978)" fill="none" stroke="#042759" stroke-linejoin="round" stroke-width="1.5"/>
      <line id="Line_176" data-name="Line 176" y2="7" transform="translate(26 24)" fill="none" stroke="#042759" stroke-linejoin="round" stroke-width="1.5"/>
      <path id="Path_26763" data-name="Path 26763" d="M31.092,34l-5.564,2.385a.87.87,0,0,0-.527.8v4.648" transform="translate(-3.243 -4.443)" fill="none" stroke="#042759" stroke-linejoin="round" stroke-width="1.5"/>
      <path id="Path_26764" data-name="Path 26764" d="M23,28.054h.707a5.144,5.144,0,0,0,3.536-1.389,29.991,29.991,0,0,0,2.828-2.78,9.523,9.523,0,0,0,.761-3.74V15" transform="translate(-2.984 -1.978)" fill="none" stroke="#042759" stroke-linejoin="round" stroke-width="1.5"/>
      <path id="Path_26765" data-name="Path 26765" d="M21,7.092V1h3.481V7.092" transform="translate(-2.724 -0.162)" fill="none" stroke="#042759" stroke-linejoin="round" stroke-width="1.5"/>
      <line id="Line_177" data-name="Line 177" x1="22" transform="translate(9 13)" fill="none" stroke="#042759" stroke-linejoin="round" stroke-width="1.5"/>
      <path id="Path_26766" data-name="Path 26766" d="M17.092,5.481V2A7.493,7.493,0,0,0,11.87,8.962v.87L11,10.7v.87" transform="translate(-1.427 -0.292)" fill="none" stroke="#042759" stroke-linejoin="round" stroke-width="1.5"/>
      <path id="Path_26767" data-name="Path 26767" d="M28,5.481V2a7.493,7.493,0,0,1,5.222,6.962v.87l.87.87v.87" transform="translate(-3.633 -0.292)" fill="none" stroke="#042759" stroke-linejoin="round" stroke-width="1.5"/>
    </g>
  </g>
</svg>
