<svg xmlns="http://www.w3.org/2000/svg" width="30.76" height="45.526" viewBox="0 0 30.76 45.526">
  <g id="cyclon-marine-sales-pin" transform="translate(-605.636 -1497.3)">
    <path id="Path_26684" data-name="Path 26684" d="M-2748.8-2907.281c0,8.218-14.88,29.28-14.88,29.28s-14.88-21.062-14.88-29.28a14.88,14.88,0,0,1,14.88-14.88A14.88,14.88,0,0,1-2748.8-2907.281Z" transform="translate(3384.698 4419.96)" fill="#a2c8ff" stroke="#da9939" stroke-width="1"/>
    <g id="Group_17041" data-name="Group 17041" transform="translate(89.311 634.275)">
      <path id="Path_1430" data-name="Path 1430" d="M6946.22,1104.4a1.8,1.8,0,0,0,1.553.76c.614-.127,1-.833,1.619-.917.862-.116,1.507,1.014,2.372.924.693-.072,1.137-.908,1.834-.94.785-.036,1.317.961,2.1.952.737-.009,1.225-.9,1.96-.937.827-.043,1.423,1.007,2.247.932.688-.063,1.123-.886,1.811-.938a2.171,2.171,0,0,1,1.253.546,1.351,1.351,0,0,0,1.771-.12l.291-.29" transform="translate(-6423.375 -221.844)" fill="none" stroke="#042759" stroke-linecap="round" stroke-miterlimit="10" stroke-width="1"/>
      <path id="Path_1431" data-name="Path 1431" d="M6946.22,1152.524a1.8,1.8,0,0,0,1.553.76c.614-.128,1-.833,1.619-.917.862-.116,1.507,1.014,2.372.924.693-.072,1.137-.908,1.834-.94.785-.036,1.317.961,2.1.952.737-.009,1.225-.9,1.96-.937.827-.043,1.423,1.007,2.247.932.688-.063,1.123-.886,1.811-.938a2.171,2.171,0,0,1,1.253.546,1.352,1.352,0,0,0,1.771-.119l.291-.291" transform="translate(-6423.375 -267.139)" fill="none" stroke="#042759" stroke-linecap="round" stroke-miterlimit="10" stroke-width="1"/>
      <path id="Path_1432" data-name="Path 1432" d="M6998.4,992.229l6.179-6.38-6.771-1.276-6.771,1.276,6.18,6.38A.824.824,0,0,0,6998.4,992.229Z" transform="translate(-6465.552 -109.226)" fill="none" stroke="#042759" stroke-linecap="round" stroke-linejoin="round" stroke-width="1"/>
      <line id="Line_51" data-name="Line 51" y2="7.987" transform="translate(532.251 875.348)" fill="none" stroke="#042759" stroke-linecap="round" stroke-linejoin="round" stroke-width="1"/>
      <path id="Path_1433" data-name="Path 1433" d="M7025.545,963.567V961.3h9.484v2.266" transform="translate(-6498.036 -87.841)" fill="none" stroke="#042759" stroke-linecap="round" stroke-linejoin="round" stroke-width="1"/>
      <path id="Path_1434" data-name="Path 1434" d="M7055.8,925.01v-2.267h5.927v2.267" transform="translate(-6526.517 -51.551)" fill="none" stroke="#042759" stroke-linecap="round" stroke-linejoin="round" stroke-width="1"/>
      <path id="Path_1435" data-name="Path 1435" d="M7086.061,886.452v-2.267h2.371v2.267" transform="translate(-6554.995 -15.26)" fill="none" stroke="#042759" stroke-linecap="round" stroke-linejoin="round" stroke-width="1"/>
    </g>
  </g>
</svg>
