<svg xmlns="http://www.w3.org/2000/svg" width="47.572" height="41.817" viewBox="0 0 47.572 41.817">
  <g id="Group_17065" data-name="Group 17065" transform="translate(-128.25 -51.183)">
    <path id="Path_26696" data-name="Path 26696" d="M138,65a3.891,3.891,0,0,0,4-4V60a4,4,0,1,0-8,0v1A3.888,3.888,0,0,0,138,65Z" fill="none" stroke="#fff" stroke-linejoin="round" stroke-width="1.5"/>
    <path id="Path_26697" data-name="Path 26697" d="M143,93V72h6.036c2,0,3-3,3-4h-16C131.287,68,129,69.515,129,74v6a4.085,4.085,0,0,0,4,4" fill="none" stroke="#fff" stroke-linejoin="round" stroke-width="1.5"/>
    <line id="Line_146" data-name="Line 146" y2="12" transform="translate(138 81)" fill="none" stroke="#fff" stroke-linejoin="round" stroke-width="1.5"/>
    <line id="Line_147" data-name="Line 147" y2="19" transform="translate(133 74)" fill="none" stroke="#fff" stroke-linejoin="round" stroke-width="1.5"/>
    <path id="Path_26698" data-name="Path 26698" d="M144.565,57a18.019,18.019,0,1,1,.986,27" fill="none" stroke="#fff" stroke-linejoin="round" stroke-width="1.5"/>
    <path id="Path_26699" data-name="Path 26699" d="M147.254,66c1.008-8.053,4.99-14.066,9.75-14.066,5.521,0,10,8.093,10,18.076s-4.476,18.076-10,18.076c-4.762,0-8.747-6.022-9.752-14.086" fill="none" stroke="#fff" stroke-linejoin="round" stroke-width="1.5"/>
    <line id="Line_148" data-name="Line 148" x2="30" transform="translate(144 63)" fill="none" stroke="#fff" stroke-linejoin="round" stroke-width="1.5"/>
    <line id="Line_149" data-name="Line 149" x2="29" transform="translate(145 77)" fill="none" stroke="#fff" stroke-linejoin="round" stroke-width="1.5"/>
    <line id="Line_150" data-name="Line 150" y2="36" transform="translate(157 52)" fill="none" stroke="#fff" stroke-width="1.5"/>
  </g>
</svg>
