<svg xmlns="http://www.w3.org/2000/svg" width="41.366" height="40.717" viewBox="0 0 41.366 40.717">
  <g id="Group_17066" data-name="Group 17066" transform="translate(-48.25 -289.25)">
    <line id="Line_151" data-name="Line 151" y2="6.916" transform="translate(62.831 312.476)" fill="none" stroke="#fff" stroke-linejoin="round" stroke-width="1.5"/>
    <path id="Path_26700" data-name="Path 26700" d="M60.238,319l-2.34,2.34a.864.864,0,0,0-.253.611v2.515a.863.863,0,0,1-.544.8l-6.471,2.589A2.592,2.592,0,0,0,49,330.265v2.567" transform="translate(0 -3.931)" fill="none" stroke="#fff" stroke-linejoin="round" stroke-width="1.5"/>
    <path id="Path_26701" data-name="Path 26701" d="M62,323l5.527,2.369a.864.864,0,0,1,.524.794v4.617" transform="translate(-1.762 -4.473)" fill="none" stroke="#fff" stroke-linejoin="round" stroke-width="1.5"/>
    <path id="Path_26702" data-name="Path 26702" d="M69.78,316.967h-.7a5.11,5.11,0,0,1-3.512-1.38,29.791,29.791,0,0,1-2.81-2.761A9.46,9.46,0,0,1,62,309.111V304" transform="translate(-1.762 -1.898)" fill="none" stroke="#fff" stroke-linejoin="round" stroke-width="1.5"/>
    <line id="Line_152" data-name="Line 152" y2="6.916" transform="translate(73.205 312.476)" fill="none" stroke="#fff" stroke-linejoin="round" stroke-width="1.5"/>
    <path id="Path_26703" data-name="Path 26703" d="M79.051,323l-5.527,2.369a.864.864,0,0,0-.524.794v4.617" transform="translate(-3.253 -4.473)" fill="none" stroke="#fff" stroke-linejoin="round" stroke-width="1.5"/>
    <path id="Path_26704" data-name="Path 26704" d="M71,316.967h.7a5.109,5.109,0,0,0,3.511-1.38,29.791,29.791,0,0,0,2.81-2.761,9.46,9.46,0,0,0,.756-3.715V304" transform="translate(-2.982 -1.898)" fill="none" stroke="#fff" stroke-linejoin="round" stroke-width="1.5"/>
    <path id="Path_26705" data-name="Path 26705" d="M69,296.051V290h3.458v6.051" transform="translate(-2.711)" fill="none" stroke="#fff" stroke-linejoin="round" stroke-width="1.5"/>
    <line id="Line_153" data-name="Line 153" x1="22.476" transform="translate(56.78 302.102)" fill="none" stroke="#fff" stroke-linejoin="round" stroke-width="1.5"/>
    <path id="Path_26706" data-name="Path 26706" d="M65.051,294.458V291a7.443,7.443,0,0,0-5.187,6.916v.864l-.864.865v.864" transform="translate(-1.355 -0.136)" fill="none" stroke="#fff" stroke-linejoin="round" stroke-width="1.5"/>
    <path id="Path_26707" data-name="Path 26707" d="M76,294.458V291a7.443,7.443,0,0,1,5.187,6.916v.864l.864.865v.864" transform="translate(-3.659 -0.136)" fill="none" stroke="#fff" stroke-linejoin="round" stroke-width="1.5"/>
    <path id="Path_26708" data-name="Path 26708" d="M91.815,320.128l-3.056,3.057-2.446-2.446,3.057-3.056c-1.247-1.247-3.875-1.017-5.5.611a4.153,4.153,0,0,0-1.075,4.6,1.674,1.674,0,0,1-.415,1.776l-5.169,5.169a1.793,1.793,0,0,0-.254,2.288,1.73,1.73,0,0,0,2.633.222l5.234-5.234A1.674,1.674,0,0,1,86.6,326.7a4.154,4.154,0,0,0,4.6-1.075C92.831,324,93.061,321.375,91.815,320.128Z" transform="translate(-3.748 -3.644)" fill="none" stroke="#fff" stroke-linejoin="round" stroke-width="1.5"/>
  </g>
</svg>
