<svg width="20" height="21" viewBox="0 0 20 21" fill="none" xmlns="http://www.w3.org/2000/svg">
	<path d="M13.8799 0H6.58389C3.22652 0 0.503906 2.80512 0.503906 6.26422V13.7813C0.503906 17.2404 3.22652 20.0455 6.58389 20.0455H13.8799C17.2372 20.0455 19.9598 17.2404 19.9598 13.7813V6.26422C19.9598 2.80512 17.2372 0 13.8799 0ZM18.1358 13.7813C18.1358 16.1993 16.2267 18.1662 13.8799 18.1662H6.58389C4.23701 18.1662 2.3279 16.1993 2.3279 13.7813V6.26422C2.3279 3.84623 4.23701 1.87927 6.58389 1.87927H13.8799C16.2267 1.87927 18.1358 3.84623 18.1358 6.26422V13.7813Z" fill="#202A30"/>
	<path d="M10.2319 5.01138C7.54574 5.01138 5.36789 7.25522 5.36789 10.0228C5.36789 12.7903 7.54574 15.0341 10.2319 15.0341C12.918 15.0341 15.0959 12.7903 15.0959 10.0228C15.0959 7.25522 12.918 5.01138 10.2319 5.01138ZM10.2319 13.1549C8.55623 13.1549 7.19188 11.7492 7.19188 10.0228C7.19188 8.29508 8.55623 6.89064 10.2319 6.89064C11.9075 6.89064 13.2719 8.29508 13.2719 10.0228C13.2719 11.7492 11.9075 13.1549 10.2319 13.1549Z" fill="#202A30"/>
	<path d="M15.4607 5.30329C15.8186 5.30329 16.1088 5.00432 16.1088 4.63552C16.1088 4.26673 15.8186 3.96776 15.4607 3.96776C15.1027 3.96776 14.8125 4.26673 14.8125 4.63552C14.8125 5.00432 15.1027 5.30329 15.4607 5.30329Z" fill="#202A30"/>
</svg>
