<svg width="14" height="13" viewBox="0 0 14 13" fill="none" xmlns="http://www.w3.org/2000/svg">
	<path d="M2.56745 0.0371094C3.05197 0.0371094 3.46131 0.194594 3.79546 0.509563C4.12961 0.809533 4.29669 1.177 4.29669 1.61195C4.29669 2.04691 4.12961 2.41437 3.79546 2.71434C3.46131 3.01431 3.05197 3.1643 2.56745 3.1643C2.08293 3.1643 1.6736 3.01431 1.33945 2.71434C1.022 2.41437 0.863281 2.04691 0.863281 1.61195C0.863281 1.177 1.022 0.809533 1.33945 0.509563C1.6736 0.194594 2.08293 0.0371094 2.56745 0.0371094ZM8.13108 4.08671V4.49167C8.66572 4.25169 9.26719 4.1467 9.9355 4.1767C10.6038 4.2067 11.2053 4.34168 11.7399 4.58166C12.308 4.86663 12.7591 5.27909 13.0932 5.81904C13.4441 6.35898 13.6195 6.91393 13.6195 7.48387V12.7933H10.8628V7.48387C10.8628 7.36388 10.8126 7.2214 10.7124 7.05641C10.6122 6.89143 10.5036 6.79394 10.3866 6.76394C10.1026 6.62896 9.8269 6.57646 9.55958 6.60646C9.29225 6.63645 9.04999 6.69645 8.8328 6.78644C8.58218 6.89143 8.34828 7.03392 8.13108 7.2139V12.7933H5.3242V4.08671H8.13108ZM1.16402 12.7933V4.08671H3.97089V12.7933H1.16402Z" fill="#202A30"/>
</svg>
