<svg xmlns="http://www.w3.org/2000/svg" width="38.208" height="34.57" viewBox="0 0 38.208 34.57">
  <g id="Group_17022" data-name="Group 17022" transform="translate(1.059 0.75)">
    <path id="Path_1430" data-name="Path 1430" d="M6946.22,1104.561c.721.8,1.821,1.7,2.979,1.459,1.179-.244,1.913-1.6,3.106-1.76,1.652-.224,2.892,1.945,4.55,1.773,1.332-.138,2.18-1.742,3.518-1.8,1.5-.069,2.526,1.844,4.032,1.826,1.414-.017,2.35-1.725,3.761-1.8,1.588-.083,2.729,1.932,4.312,1.787,1.319-.12,2.153-1.7,3.474-1.8a4.158,4.158,0,0,1,2.4,1.048,2.592,2.592,0,0,0,3.4-.229l.557-.557" transform="translate(-6946.22 -1078.412)" fill="none" stroke="#042759" stroke-linecap="round" stroke-width="1.5"/>
    <path id="Path_1431" data-name="Path 1431" d="M6946.22,1152.684c.721.8,1.821,1.7,2.979,1.459,1.179-.244,1.913-1.6,3.106-1.76,1.652-.223,2.892,1.945,4.55,1.773,1.332-.138,2.18-1.742,3.518-1.8,1.5-.069,2.526,1.844,4.032,1.826,1.414-.017,2.35-1.725,3.761-1.8,1.588-.083,2.729,1.932,4.312,1.787,1.319-.121,2.153-1.7,3.474-1.8a4.158,4.158,0,0,1,2.4,1.048,2.592,2.592,0,0,0,3.4-.23l.557-.557" transform="translate(-6946.22 -1121.108)" fill="none" stroke="#042759" stroke-linecap="round" stroke-width="1.5"/>
    <path id="Path_1432" data-name="Path 1432" d="M7005.158,999.26l11.855-12.239-12.991-2.447-12.99,2.447,11.855,12.239A1.581,1.581,0,0,0,7005.158,999.26Z" transform="translate(-6985.98 -972.253)" fill="none" stroke="#042759" stroke-linecap="round" stroke-linejoin="round" stroke-width="1.5"/>
    <line id="Line_51" data-name="Line 51" y2="15.322" transform="translate(18.043 12.321)" fill="none" stroke="#042759" stroke-linecap="round" stroke-linejoin="round" stroke-width="1.5"/>
    <path id="Path_1433" data-name="Path 1433" d="M7025.545,965.649V961.3h18.2v4.348" transform="translate(-7016.599 -952.604)" fill="none" stroke="#042759" stroke-linecap="round" stroke-linejoin="round" stroke-width="1.5"/>
    <path id="Path_1434" data-name="Path 1434" d="M7055.8,927.091v-4.348h11.371v4.348" transform="translate(-7043.447 -918.395)" fill="none" stroke="#042759" stroke-linecap="round" stroke-linejoin="round" stroke-width="1.5"/>
    <path id="Path_1435" data-name="Path 1435" d="M7086.062,888.534v-4.348h4.547v4.348" transform="translate(-7070.291 -884.186)" fill="none" stroke="#042759" stroke-linecap="round" stroke-linejoin="round" stroke-width="1.5"/>
  </g>
</svg>
