<svg width="19" height="14" viewBox="0 0 19 14" fill="none" xmlns="http://www.w3.org/2000/svg">
	<path d="M18.6085 2.99122C18.3896 2.19579 17.7478 1.56876 16.934 1.35458C15.4472 0.957031 9.49979 0.957031 9.49979 0.957031C9.49979 0.957031 3.55265 0.957031 2.06584 1.3395C1.26764 1.55346 0.610218 2.1959 0.391273 2.99122C0 4.44405 0 7.45703 0 7.45703C0 7.45703 0 10.4852 0.391273 11.9228C0.61045 12.7182 1.25198 13.3452 2.06595 13.5594C3.5683 13.957 9.50002 13.957 9.50002 13.957C9.50002 13.957 15.4472 13.957 16.934 13.5746C17.7479 13.3605 18.3896 12.7335 18.6088 11.9381C18.9999 10.4852 18.9999 7.47233 18.9999 7.47233C18.9999 7.47233 19.0156 4.44405 18.6085 2.99122ZM7.60628 10.2405V4.67353L12.5518 7.45703L7.60628 10.2405Z" fill="#202A30"/>
</svg>
